<svg id="Layer_1" data-name="Layer 1" xmlns="http://www.w3.org/2000/svg" viewBox="0 0 103.18 143.83"><defs><style>.cls-1{fill:#020f3f;}.cls-2{fill:#32effa;}</style></defs><rect class="cls-1" x="47.72" y="14.58" width="7.5" height="14.21" transform="translate(102.94 43.37) rotate(-180)"/><circle class="cls-1" cx="51.59" cy="8.01" r="8.01"/><path class="cls-1" d="M51.59,21.79A51.59,51.59,0,0,0,0,73.38c0,28.49,51.59,70.45,51.59,70.45s51.59-42,51.59-70.45A51.59,51.59,0,0,0,51.59,21.79Zm0,86.32A36.62,36.62,0,1,1,88.21,71.5,36.61,36.61,0,0,1,51.59,108.11Z"/><path class="cls-1" d="M51.92,41.85c15.81-.11,28.93,13.55,28.25,29.4-.23,5.55-3.12,8.27-8.73,7.69A85.59,85.59,0,0,1,60.6,76.87a43.15,43.15,0,0,0-20.67.52,51.49,51.49,0,0,1-5.58,1.23C25.26,79.83,21.79,76.37,23,67.37A29,29,0,0,1,51.92,41.85Zm-15.18,19c1.88,2.61,3.26,6.2,4.75,6.25,3.43.1,3.52-3.51,3.48-6.18s-.18-6.22-3.6-6.15C40,54.75,38.6,58.24,36.74,60.81Zm29.53.58c-1.87-2.8-3.31-6.65-4.63-6.61-3.57.12-3.88,3.9-3.47,6.61.32,2.09,2.12,4,3.26,5.91Z"/><circle class="cls-1" cx="41.42" cy="60.89" r="7.63"/><circle class="cls-1" cx="60.71" cy="61.04" r="7.63"/><circle class="cls-2" cx="42.08" cy="59.59" r="4.86"/><circle class="cls-2" cx="60.86" cy="59.74" r="4.86"/></svg>