<svg id="Layer_1" data-name="Layer 1" xmlns="http://www.w3.org/2000/svg" viewBox="0 0 255.99 256.1"><path d="M223.49,334.77c-14.75,4.33-29.92,9.21-45.32,13.15-11.26,2.87-16.88-2.39-14-13.78,3.84-15.46,8.76-30.65,13.12-45.62-12.57-6.76-27-13.55-40.44-22-11.84-7.5-11.73-13.59.37-21.24,13.05-8.25,27.15-14.82,40.15-21.79-4.25-14.28-7.83-29.83-13.69-44.48-2.8-7-10.7-11.81-14.78-18.54-2.59-4.28-2.4-10.26-3.45-15.47,4.87,1,11.44.21,14.38,3.12q102.5,101.54,204,204c3,3,2.4,9.52,3.47,14.39-4.87-.6-11.95.63-14.25-2.13-10.36-12.42-23.53-17.77-38.86-20.87-9-1.81-17.27-6.83-24.94-10-7.5,14.08-14,28.21-22.25,41.24-8,12.59-13.86,12.48-22.06-.41C236.88,361.64,230.53,347.93,223.49,334.77Z" transform="translate(-128.01 -127.95)"/><path d="M288.44,177.27c15-4.38,30.11-9.21,45.49-13.18,11.19-2.9,16.94,2.13,14.11,13.58-3.81,15.45-8.73,30.62-13.15,45.82,12.39,6.62,26.82,13.34,40.17,21.78,12.06,7.62,11.63,12.77.4,21.41a101.72,101.72,0,0,1-10.6,7.07C333,292.46,328,291.83,302.34,266.24c-23.41-23.4-46.59-47-70.36-70-6.69-6.48-9.21-12.83-5.35-21.25,5.49-11.95,10.17-24.43,17-35.56,9.33-15.16,15.19-15.2,24.49-.45C275.87,151.18,281.8,164.56,288.44,177.27Z" transform="translate(-128.01 -127.95)"/></svg>