<svg id="Layer_1" data-name="Layer 1" fill="020f3f" xmlns="http://www.w3.org/2000/svg" viewBox="0 0 243.93 247.29"><path d="M134,182.86c.27-24.22,10.84-40.17,26.27-45.47,17.37-6,33.2-2.78,45.86,11.13,25.74,28.26,51.26,56.72,76.85,85.12,4.91,5.44,9.81,10.9,14.64,16.41,8.57,9.8,17.47,17.54,31.13,21.63,10.15,3,21.65,12.86,25.77,22.54,9.74,22.9,15.75,47.42,22.62,71.48,2.89,10.12-2.25,16.11-12.52,13.22C339.58,371.86,314,365.5,290.34,355c-9.74-4.32-15.4-18.29-22.4-28.23-5.18-7.35-8.17-16.72-14.48-22.73-33.38-31.75-68-62.25-101.09-94.28C143.21,200.93,137.65,188.33,134,182.86ZM273.88,296.62l22.36-19.92-19.47-21.2-24.84,21Z" transform="translate(-134.03 -132.35)"/><path d="M186.07,258.64c21.08,19.45,41.78,38.54,63.92,59-16.39,15.56-28.21,34.94-52.75,39.4-14.81,2.69-29.11,8.1-43.68,12.12-17.3,4.76-21.61.65-17-16.19,3.41-12.58,8.22-24.93,10.22-37.72C150.74,289.83,167.75,274.34,186.07,258.64Z" transform="translate(-134.03 -132.35)"/><path d="M258,187.16c15.63-15.94,29-31.32,44.26-44.66,17.23-15.11,42.13-12.81,58.15,3.37s17.9,41,2.58,58.22c-14.2,15.91-30.36,30.08-47.32,46.63C296.83,230,277.76,209,258,187.16Zm76.73,18.77c12.13-10.47,24.37-20.23,17.87-36.18-3-7.36-12-15.17-19.69-17.12-15.14-3.81-24.41,7.33-32.32,18.72Z" transform="translate(-134.03 -132.35)"/></svg>