<svg id="Layer_1" data-name="Layer 1" xmlns="http://www.w3.org/2000/svg" viewBox="0 0 260.39 259.26"><path d="M306.57,126.37c37.47.27,72.84,31.47,78.68,69.43,5.65,36.74-14.26,65.42-53.53,78.9-23.61,8.1-46.89,17.27-70,26.69-16.6,6.76-32,7.16-45.18-6.21s-12.32-28.7-5.53-45.27c9.91-24.18,19-48.72,27.81-73.34C250.54,143.77,273.9,126.15,306.57,126.37Z" transform="translate(-125.8 -126.37)"/><path d="M197.26,296.47l25,22.09c-4.29,3.81-8.25,8-12.85,11.27-9.08,6.51-14.06,12.67-9.9,25.75a22.64,22.64,0,0,1-15.94,29.08c-9.76,2.49-22.35-.11-31.85-4.46-8.29-3.79-16.33-12.09-20.26-20.39-4.26-9-7.89-22.49-4-30,4.32-8.36,19.91-19,26.21-16.69,19,6.95,27.72-5,39-13.94A39.27,39.27,0,0,1,197.26,296.47Z" transform="translate(-125.8 -126.37)"/></svg>