<svg id="Layer_1" data-name="Layer 1" fill="#020f3f" xmlns="http://www.w3.org/2000/svg" viewBox="0 0 238 246.02"><path d="M338.76,245c7.39,34.62,15.2,68.74,21.74,103.1,2.54,13.29-7.15,24.75-20.39,27.52-1.07.22-2.18.23-3.27.35-46.68,5.37-48,4.21-48.15-42.2,0-6,.22-12.2-1.1-18a32.63,32.63,0,0,0-34-25.17c-15.77,1.26-29.15,14.53-30.41,31.6-.93,12.55-.61,25.22-.28,37.82.28,10.83-3.74,16.56-15.27,16.16-11-.39-22,.46-32.88-.36-15.48-1.17-26.44-13-23.7-27.67,6.43-34.38,14.32-68.48,21.72-103.16Z" transform="translate(-137 -132.15)"/><path d="M190.74,171.16H219c3.73-12.4,3.8-28.71,11.53-34.18,9.17-6.48,24.94-4.54,37.85-4.6,28-.13,17.45,23.35,21.51,38.43h30.69c.38-5.05.93-9.78,1-14.52.48-19.46,5-23.94,24.52-24.11,24.66-.22,27.08,3.46,28.58,28.59,1.54,25.84-3.87,47-29.27,58.56-5.26,2.4-11.11,4.88-16.71,4.93q-72.49.59-145,.16c-23.88-.1-46.05-22.29-46.67-46.15-.2-7.68-.14-15.37,0-23.06.28-18.08,5.24-22.81,23.9-23,25-.3,28.19,2.83,28.85,28C190,163.4,190.37,166.58,190.74,171.16Z" transform="translate(-137 -132.15)"/></svg>