<svg id="Layer_1" data-name="Layer 1" xmlns="http://www.w3.org/2000/svg" viewBox="0 0 314.64 257.21"><path d="M252.92,384.54c-10,1-13-8.13-11.4-19.34,2.37-17-3.74-26.86-19.65-34.54C207,323.47,193.18,312.82,181,301.44c-9.81-9.19-17-9.09-27.4-2.21a327.18,327.18,0,0,1-35.82,20.12c-11.08,5.5-18.67,1.87-18.8-11.09-.37-34.29-.49-68.6,0-102.88.22-14.77,7.17-18.24,21-11.12,13.28,6.83,25.81,15.24,39.42,21.27,4.69,2.08,12.83,1,17.32-1.88,18.83-12,36.13-26.63,55.5-37.62,11.46-6.52,8.81-15.07,9-23.78.43-23.85,6.72-29.09,29.57-21.83,8.7,2.76,19.22,6.47,24.12,13.22,13.2,18.19,34.2,23.56,50.75,35.72C367,195,385.54,214.55,403.91,233.75c12.8,13.38,11.95,28.89,1,44.21-20.31,28.52-45.28,51-77.73,65.21a65.5,65.5,0,0,0-21.56,16C292.49,373.75,277.21,383.1,252.92,384.54ZM349.45,230c-4.68,6.75-10,11-9.6,14.79.36,3.92,6.14,7.34,9.56,11,3.8-3.87,9.61-7.26,10.68-11.78C360.79,241.06,354.62,236.48,349.45,230Z" transform="translate(-98.68 -127.39)"/></svg>