<svg id="Layer_1" data-name="Layer 1" fill="#020f3f" xmlns="http://www.w3.org/2000/svg" viewBox="0 0 181.38 258.9"><path d="M185,203.56h19.48V153.8c0-4.86-1.22-10.18.36-14.47,1.74-4.75,6-8.56,9.24-12.78,3.28,4.13,9.1,8.09,9.39,12.42,1.13,16.68.44,33.47.52,50.22,0,4.24.39,8.47.66,13.88l18.79,1.24c0-18.62,0-36.2,0-53.79,0-4.86-1.06-10.17.56-14.44,1.44-3.78,5.89-8.81,9.07-8.85s9.13,5.42,9.17,8.51c.31,30.75,1.7,61.75-1.8,92.15-1.3,11.21-13.16,23.16-23.23,30.77-7.64,5.77-10.27,10.34-10.16,19.1.38,29.72.06,59.44.19,89.16,0,9.43-1.41,18.43-12.91,18.53s-13.19-8.73-13.15-18.26c.13-29.72-.15-59.45.16-89.16.1-8.59-.78-14.43-10.23-18.94-16.87-8.07-25.21-23.23-25.47-42-.34-24.85-.67-49.74.31-74.56.21-5.43,5.94-10.64,9.13-16,3.3,5.2,9.14,10.25,9.45,15.62C185.68,162,185,181.94,185,203.56Z" transform="translate(-165.31 -126.55)"/><path d="M288.89,254.79c0-36.74-.25-73.5.27-110.24.08-5.77,3.65-11.5,5.61-17.25,5.62,2.26,12.84,3,16.59,7,32.45,34.62,38.67,77.41,33.91,122.09-.92,8.7-11.41,17.94-19.7,23.83-8.05,5.73-11.34,10.92-10.95,20.74.82,20.51.29,41.07.23,61.6,0,10.22,1.66,23.1-13.35,22.71S289,371.84,288.93,361.8C288.84,326.13,288.89,290.46,288.89,254.79Z" transform="translate(-165.31 -126.55)"/></svg>