<svg id="Layer_1" data-name="Layer 1" fill="#020f3f" xmlns="http://www.w3.org/2000/svg" viewBox="0 0 202.12 202.07"><path d="M219.85,206.52c2.45,1.49,7,3.24,10.19,6.37q34.58,34,68.64,68.59c11.23,11.46,8.62,24-6.44,29.58-41.72,15.46-83.61,30.44-125.55,45.28-3.13,1.11-8.6,1-10.4-1s-1.6-7.31-.46-10.53c14.74-41.56,29.87-83,44.74-124.5C203.54,212.07,208.64,207,219.85,206.52Z" transform="translate(-154.94 -154.96)"/><path d="M267.79,233.1c14.64-.33,20.52-7.32,21.54-20.76s9.13-22.16,22.3-26c7.42-2.15,14.64-5,22.13-6.8,2.46-.58,6.69.5,7.95,2.32s1,7.29-.44,8.14c-6.22,3.72-12.87,8-19.8,9-11.68,1.69-17.37,6.83-18.8,18.66a38.94,38.94,0,0,1-7.12,18.22C285.77,248.74,278.16,247.92,267.79,233.1Z" transform="translate(-154.94 -154.96)"/><path d="M250,217.51l-9.43-9.91c8.91-13,9.37-26.53,4.92-41-1-3.21,2.3-7.73,3.62-11.65,3.08,2.31,7.78,4,9,7C265.58,181.25,264.39,199.65,250,217.51Z" transform="translate(-154.94 -154.96)"/><path d="M292.08,263.66c20.91-16.44,39.61-17.2,59.05-9.49,2.68,1.07,4,5.61,5.93,8.55-3.49,1.5-7.59,5-10.38,4.16-13.31-4-25.79-4.75-38.78,1.81C305,270.17,299.2,266.09,292.08,263.66Z" transform="translate(-154.94 -154.96)"/><path d="M286.84,161.07c3.88,5.57,8.58,9.36,8.2,12.55s-5.72,6-8.89,9c-3-3.17-8.09-6.22-8.27-9.54S282.62,166.35,286.84,161.07Z" transform="translate(-154.94 -154.96)"/><path d="M211,175.3c3.9,5.55,8.6,9.34,8.23,12.53s-5.72,6-8.88,9c-3-3.17-8.1-6.21-8.29-9.53S206.75,180.59,211,175.3Z" transform="translate(-154.94 -154.96)"/><path d="M169.83,208.57c5.56-3.89,9.36-8.59,12.54-8.21s8.4,5.8,8.3,8.88-5.55,8.11-8.87,8.29S175.11,212.78,169.83,208.57Z" transform="translate(-154.94 -154.96)"/><path d="M341.45,230.68c-5.57,3.88-9.37,8.58-12.55,8.2s-6-5.73-9-8.9c3.17-3,6.24-8.12,9.54-8.27S336.2,226.49,341.45,230.68Z" transform="translate(-154.94 -154.96)"/><path d="M341.45,291.57c-5.3,4.21-8.79,9.13-12,8.94s-8.75-5.25-8.85-8.32,5-8.49,8.31-8.84S335.93,287.7,341.45,291.57Z" transform="translate(-154.94 -154.96)"/><path d="M314.57,312.81c4.19,5.28,9.1,8.77,8.92,12s-5.32,6.37-8.29,9.53c-3.16-3-8.49-5.69-8.88-9S310.66,318.36,314.57,312.81Z" transform="translate(-154.94 -154.96)"/></svg>