<svg id="Layer_1" data-name="Layer 1" xmlns="http://www.w3.org/2000/svg" viewBox="0 0 284.89 347.71"><path d="M398.41,243.57c.14,41.51-3.74,82.45-20.59,121-19.72,45-54.28,67.28-99.66,65.19-39.67-1.82-72.29-30-83.89-71.1-2.05-7.23-6.79-15.54-12.81-19.53-59.86-39.63-83.12-106.6-57.76-169,25.45-62.61,93.91-98.59,162-85.15C355.84,98.79,397.56,148.77,398.4,220,398.49,227.86,398.41,235.72,398.41,243.57Zm-21.5-1.34c-3.05-56.32-14.21-86.69-43.73-110.16-53.13-42.23-137.67-28.88-175.27,27.68-37.48,56.37-17.72,126.36,44.72,162.16,7,4,13.07,13.82,14.69,21.92,5.75,28.82,19.78,49.76,48.87,57.92,29.42,8.26,54.85.18,73.56-23.63,8.69-11.06,16.49-24.42,19.61-37.91C366.81,307.92,371.25,274.93,376.91,242.23Z" transform="translate(-113.55 -82.15)"/><path d="M231.06,304.49c-31.18-6.67-55.91-20.6-66.07-52.36-15.7-49,20.92-106.91,76.13-120.43,52.61-12.89,102,18.46,107.8,74.27,3.95,37.86,1.38,77.16-3.94,115-5.25,37.37-27.44,54.67-56.66,53.68-28.84-1-47.92-20.39-55.37-56.5C232.16,314.37,231.87,310.46,231.06,304.49Zm63.52-92.18c-.34-13.74-13-26.06-26.68-26s-26.25,12.41-26.47,26.19c-.24,14.51,13.21,27.64,27.64,27C282.83,238.86,294.92,226,294.58,212.31Z" transform="translate(-113.55 -82.15)"/></svg>