<svg id="Layer_1" data-name="Layer 1" fill="#020f3f" xmlns="http://www.w3.org/2000/svg" viewBox="0 0 262.31 296.81"><path d="M214.72,339.26c-18.05-2.58-28.12-12.21-36.43-25.47-3.34-5.33-9.56-11-15.39-12.27-35.73-7.81-50.31-47-26.18-74.24,6-6.73,7.64-11.77,6.48-20.68-2.16-16.58,7-27.82,21.39-35.88,5.42-3,10.79-8.64,13.08-14.33C184.28,140,194.26,129.57,212.8,128c4.74-.4,10-4,13.53-7.64,16.94-17.2,42.62-17,59.75.35,3.52,3.57,8.9,6.87,13.7,7.32,18.51,1.75,28.45,12.31,34.72,28.82a26.73,26.73,0,0,0,11.89,13.29c16.61,8.26,24.24,21.39,22.58,40.36-.37,4.26.92,9.84,3.6,13,27.21,32.16,15,69.14-25.57,78.19-4.86,1.08-10,6.29-12.67,10.92C326.18,326.7,316,337,297.27,339.08c0-10.67.54-20.37-.34-29.94-.26-2.74-4.65-5.09-7.14-7.62-2,2.45-5.67,4.89-5.69,7.36-.14,17.75-.62,35.62,1.22,53.21,1.19,11.33,8.39,19.39,21.13,21.9,4.27.84,7.54,6.73,11.26,10.31-4.56,3.31-9,9.38-13.69,9.5-32.11.83-64.26.77-96.38,0-4.46-.1-8.8-5.39-13.2-8.28,3.87-4,7.16-10.56,11.7-11.6,15.24-3.48,20.63-14.23,21.76-27.39,1.28-14.81.87-29.83.25-44.71-.15-3.53-4.1-6.9-6.3-10.35-2.38,3.27-6.42,6.35-6.8,9.83C214.07,320.22,214.72,329.29,214.72,339.26Z" transform="translate(-124.84 -107.59)"/></svg>