<svg id="Layer_1" data-name="Layer 1" fill="#020f3f" xmlns="http://www.w3.org/2000/svg" viewBox="0 0 286.06 326.13"><path d="M244.43,172.49v87.32c-38.94,0-76.37.73-113.71-.76-6-.24-11.67-10.34-17.13-16.23-1-1.11-.46-3.83-.45-5.81.22-69.93-6.47-63.08,57.11-65.27-9.92-28.18-7.56-53.69,19.75-70.58,23.64-14.62,45.47-8.67,65.51,10.73,22-20.1,46.26-26.74,71.29-7.43,22.39,17.26,25.13,40.59,13.6,68.28,12.55,0,23.48,0,34.4,0,16.41,0,24.26,8.29,24.09,24.54,0,.66,0,1.32,0,2,.05,63.32,5.64,61.67-59.2,60.92-23-.26-46.09,0-72.11,0V172.5c9.91,0,19.88.75,29.71-.14,16.12-1.45,27.47-14.39,25.86-29.33s-10.6-24-25.65-25.63-27.84,9.8-29.25,25.93c-.86,9.84-.13,19.82-.11,29.74l-24.27,0c0-9.92.74-19.9-.13-29.74-1.44-16.13-14.37-27.5-29.3-25.9s-24,10.58-25.61,25.65,9.76,27.87,25.89,29.31C224.55,173.24,234.52,172.5,244.43,172.49Z" transform="translate(-112.97 -92.94)"/><path d="M129.24,284c35.37,0,68.31,0,101.24,0,3.85,0,7.7.37,12.51.61V417.07c-24.81,0-50.44,2.4-75.38-.72-22-2.76-37.16-22.54-38.08-44.87C128.36,343.21,129.24,314.85,129.24,284Z" transform="translate(-112.97 -92.94)"/><path d="M268.67,419.06V285.27H382.5c0,29.84,1.45,59.46-.45,88.86-1.6,24.86-22.59,42.59-48,44.69-3.94.33-7.92.23-11.88.23C305.08,419.07,288,419.06,268.67,419.06Z" transform="translate(-112.97 -92.94)"/></svg>