<svg id="Layer_1" data-name="Layer 1" xmlns="http://www.w3.org/2000/svg" viewBox="0 0 218.97 230.88"><path d="M358.07,271.93c-21.53-14.81-43-11.48-64.68-2.65-33.4,13.62-67.9,17.83-103.53,11.59a107.72,107.72,0,0,1-13.34-3c-19.18-5.9-29.16-16.5-30-31.46-.89-17.05,8.52-31.68,25.62-39.8,17.61,31.38,62.92,51.86,97.67,43.63,3.12-.74,5.38-5.06,8-7.71-3.5-2.78-6.7-7.33-10.57-8-14.34-2.5-29-3.16-43.36-5.67a64.49,64.49,0,0,1-20.33-7.79c-17.37-9.9-17.93-28.53-1.41-39.72,5.65-3.82,12.43-6.06,17.79-10.21,7.4-5.73,15-11.76,20.61-19.13,9.08-11.95,15.32-15.45,27.2-6.09,13.69,10.79,26.78,23.51,36.32,37.91,5.69,8.6,10.88,12.58,20.18,14.68C360.94,206.77,375.67,237.69,358.07,271.93Z" transform="translate(-146.52 -140.56)"/><path d="M165.08,291.83c3.63,1,4.92,1.54,6.25,1.63,22.18,1.57,37.85,9.22,35.89,35.59-.2,2.75,6,6,9.28,9,2.16-4,6.06-7.92,6.11-11.92.12-8.08-1.85-16.19-3.11-25.4l28.56-1.8c0,9.34-.86,18.35.37,27.06.6,4.31,5,8.08,7.76,12.1,2.77-3.95,7.43-7.67,7.94-11.89,1.19-9.83.38-19.9.38-30.07l30.71-9.35c-1.8,12.64-4.2,23.81-4.63,35.05-.21,5.31,2.25,14.46,5.45,15.43,8.73,2.62,9.39-5.61,10.29-12,1.7-12.2,3.63-24.36,5.18-36.57,1.85-14.48,12.91-10.88,21.09-9.76,7.36,1,17.45,1.76,14.61,14.63-4,18.25-7,36.73-11.36,54.89-3.37,14.1-14.16,22.59-28.84,22.76q-50.7.59-101.42,0c-14.31-.16-24.86-7.73-28.47-21.45C172.28,331.33,169.27,312.46,165.08,291.83Z" transform="translate(-146.52 -140.56)"/></svg>