<svg id="Layer_1" data-name="Layer 1" xmlns="http://www.w3.org/2000/svg" viewBox="0 0 279.18 258.38"><path d="M212.22,375.37V127.21c27.07,3.53,74.5,70.12,80.52,112.39C300.05,291,263.89,353.15,212.22,375.37Z" transform="translate(-116.41 -126.81)"/><path d="M190.47,126.81v247.3c-44.72-18.44-76-73.69-74-129.4C118,204.61,159.88,137,190.47,126.81Z" transform="translate(-116.41 -126.81)"/><path d="M227.65,384.16c37.08-23.66,61-52.11,72.77-90a17.17,17.17,0,0,1,4.39-7.07c28.26-26.8,56.64-53.47,88.08-83.08,5.78,47.37,3.85,89.06-21.39,127.71C337.72,383.41,287,388,227.65,384.16Z" transform="translate(-116.41 -126.81)"/><path d="M310.25,252.32c-6.4-21.86-12.34-42.17-18.47-63.1h86.65Z" transform="translate(-116.41 -126.81)"/></svg>